<?xml version="1.0" encoding="utf-8"?>
<!-- Generator: Adobe Illustrator 17.0.2, SVG Export Plug-In . SVG Version: 6.00 Build 0)  -->
<!DOCTYPE svg PUBLIC "-//W3C//DTD SVG 1.1 Tiny//EN" "http://www.w3.org/Graphics/SVG/1.1/DTD/svg11-tiny.dtd">
<svg version="1.1" baseProfile="tiny" xmlns="http://www.w3.org/2000/svg" xmlns:xlink="http://www.w3.org/1999/xlink" x="0px"
	 y="0px" width="547px" height="204px" viewBox="0 0 547 204" xml:space="preserve">
<g id="Phone_1_">
	<g id="Phone">
		<path fill-rule="evenodd" fill="#84CBC5" d="M512,119h-22c-2.209,0-4,1.791-4,4v45c0,2.209,1.791,4,4,4h22c2.209,0,4-1.791,4-4
			v-45C516,120.791,514.209,119,512,119z M499.5,121h4c0.276,0,0.5,0.224,0.5,0.5s-0.224,0.5-0.5,0.5h-4c-0.276,0-0.5-0.224-0.5-0.5
			S499.224,121,499.5,121z M501.5,170c-0.828,0-1.5-0.672-1.5-1.5s0.672-1.5,1.5-1.5s1.5,0.672,1.5,1.5S502.328,170,501.5,170z
			 M514,165h-26v-41h26V165z"/>
	</g>
</g>
<g id="Laptop_1_">
	<g id="Laptop">
		<path fill-rule="evenodd" fill="#FFC228" d="M299,165h26c0.738,0,1.376,0.405,1.723,1H396V71c0-3.314-2.686-6-6-6H233
			c-3.314,0-6,2.686-6,6v95h70.277C297.624,165.405,298.262,165,299,165z M233,77c0-3.314,2.686-6,6-6h145c3.314,0,6,2.686,6,6v82
			H233V77z M327,167c0,1.105-0.895,2-2,2h-26c-1.105,0-2-0.895-2-2h-96v2.5c0,1.381,1.119,2.5,2.5,2.5h216
			c1.381,0,2.5-1.119,2.5-2.5V167H327z"/>
	</g>
</g>
<g id="PC_1_">
	<g id="PC">
		<path fill-rule="evenodd" fill="#76ACFC" d="M204,32H44c-5.523,0-10,4.477-10,10v98c0,5.523,4.477,10,10,10h160
			c5.523,0,10-4.477,10-10V42C214,36.477,209.523,32,204,32z M205,133c0,5.523-2.477,8-8,8H51c-5.523,0-8-2.477-8-8V49
			c0-5.523,2.477-8,8-8h146c5.523,0,8,2.477,8,8V133z M160,171h-13v-17h-45v17H89c-0.552,0-1,0.448-1,1v1.5
			c0,1.381,1.119,2.5,2.5,2.5h68c1.381,0,2.5-1.119,2.5-2.5V172C161,171.448,160.552,171,160,171z"/>
	</g>
</g>
<g id="Tablet_1_">
	<g id="Tablet">
		<path fill-rule="evenodd" fill="#F47264" d="M469,81h-50c-3.314,0-6,2.686-6,6v64c0,3.314,2.686,6,6,6h50c3.314,0,6-2.686,6-6V87
			C475,83.686,472.314,81,469,81z M444,154c-1.105,0-2-0.895-2-2c0-1.105,0.895-2,2-2s2,0.895,2,2C446,153.105,445.104,154,444,154z
			 M469,147h-50V87h50V147z"/>
	</g>
</g>
<g id="image_icon_1_">
	<g id="Shape">
		<path fill-rule="evenodd" fill="#DDDDDD" d="M334.693,86.211l-59.08,15.184l12.695,49.395l59.08-15.184L334.693,86.211z
			 M276.8,102.093l57.189-14.698l12.211,47.513l-57.189,14.698L276.8,102.093z"/>
	</g>
	<g id="Shape_1_">
		<path fill-rule="evenodd" fill="#FFDC84" d="M324.47,120.934l-4.562,9.698l-15.575-13.55c0,0-6.698,24.824-6.727,24.798
			c-0.023-0.02-3.296,0.839-3.308,0.85c-0.115,0.102-2.231,3.081-2.231,3.081l49.627-12.755L324.47,120.934z M325.679,104.074
			c2.088-0.537,3.348-2.657,2.814-4.735s-2.66-3.328-4.748-2.792c-2.088,0.537-3.348,2.657-2.814,4.735
			C321.465,103.36,323.591,104.61,325.679,104.074z"/>
	</g>
</g>
</svg>
