<?xml version="1.0" encoding="utf-8"?>
<!-- Generator: Adobe Illustrator 17.0.2, SVG Export Plug-In . SVG Version: 6.00 Build 0)  -->
<!DOCTYPE svg PUBLIC "-//W3C//DTD SVG 1.1//EN" "http://www.w3.org/Graphics/SVG/1.1/DTD/svg11.dtd">
<svg version="1.1" id="iPad_Air_1_" xmlns="http://www.w3.org/2000/svg" xmlns:xlink="http://www.w3.org/1999/xlink" x="0px"
	 y="0px" width="430px" height="620px" viewBox="0 0 430 620" enable-background="new 0 0 430 620" xml:space="preserve">
<rect x="-15.167" y="522.833" display="none" width="450.333" height="121.667"/>
<radialGradient id="SVGID_1_" cx="268.1332" cy="-2047.7194" r="113.8185" gradientTransform="matrix(2.5712 0.0106 2.737870e-04 -0.0483 -480.4297 504.3324)" gradientUnits="userSpaceOnUse">
	<stop  offset="0" style="stop-color:#D6D6D6"/>
	<stop  offset="0.4176" style="stop-color:#D8D8D8;stop-opacity:0.5418"/>
	<stop  offset="0.6225" style="stop-color:#E0E0E0;stop-opacity:0.3171"/>
	<stop  offset="0.7805" style="stop-color:#EDEDED;stop-opacity:0.1437"/>
	<stop  offset="0.9115" style="stop-color:#FFFFFF;stop-opacity:0"/>
</radialGradient>
<path fill="url(#SVGID_1_)" d="M622.364,607.789c-0.021,3.687-185.362,5.91-413.97,4.966s-413.915-4.698-413.894-8.385
	s185.362-5.91,413.97-4.966S622.385,604.102,622.364,607.789z"/>
<linearGradient id="SVGID_2_" gradientUnits="userSpaceOnUse" x1="503.5" y1="-358.6667" x2="503.5" y2="-298.666" gradientTransform="matrix(1 0 0 -1 -288 243)">
	<stop  offset="0" style="stop-color:#FAFAFA"/>
	<stop  offset="1" style="stop-color:#FCFCFC"/>
</linearGradient>
<path fill="url(#SVGID_2_)" stroke="#FFFFFF" stroke-width="4" stroke-miterlimit="100" d="M405.14,592.362
	c-4.331,4.254-17.641,9.305-17.641,9.305H43.501c0,0-12.811-2.622-17.143-6.876C21.392,589.913,19,574.073,19,574.073v-32.407h393
	v35.936C412,577.602,409.47,588.108,405.14,592.362z"/>
<path fill="#FFFFFF" d="M391,9c11.579,0,21,9.421,21,21v549c0,11.579-9.421,21-21,21H40c-11.579,0-21-9.421-21-21V30
	c0-11.579,9.421-21,21-21H391 M391,5H40C26.193,5,15,16.193,15,30v549c0,13.807,11.193,25,25,25h351c13.807,0,25-11.193,25-25V30
	C416,16.193,404.807,5,391,5L391,5z"/>
<g id="button">
	<g>
		<circle fill="#EEEEEE" cx="215.5" cy="575.5" r="14.5"/>
	</g>
</g>
<g id="speakers">
	<g>
		<path fill="#F47264" d="M216,40c-1.103,0-2-0.897-2-2s0.897-2,2-2s2,0.897,2,2S217.103,40,216,40z M203.5,39
			c-0.276,0-0.5-0.224-0.5-0.5s0.224-0.5,0.5-0.5s0.5,0.224,0.5,0.5S203.776,39,203.5,39z"/>
	</g>
	<g>
		<path fill="#F5F5F5" d="M216,34c-2.209,0-4,1.791-4,4s1.791,4,4,4s4-1.791,4-4S218.209,34,216,34L216,34z M203.5,36
			c-1.381,0-2.5,1.119-2.5,2.5s1.119,2.5,2.5,2.5s2.5-1.119,2.5-2.5S204.881,36,203.5,36L203.5,36z"/>
	</g>
</g>
</svg>
