<?xml version="1.0" encoding="utf-8"?>
<!-- Generator: Adobe Illustrator 15.1.0, SVG Export Plug-In . SVG Version: 6.00 Build 0)  -->
<!DOCTYPE svg PUBLIC "-//W3C//DTD SVG 1.1//EN" "http://www.w3.org/Graphics/SVG/1.1/DTD/svg11.dtd">
<svg version="1.1" id="iPhone_1_" xmlns="http://www.w3.org/2000/svg" xmlns:xlink="http://www.w3.org/1999/xlink" x="0px" y="0px"
	 width="404px" height="486px" viewBox="0 0 404 486" enable-background="new 0 0 404 486" xml:space="preserve">
<path fill="#FFFFFF" d="M331,9H72C38.863,9,12,35.863,12,69v417h5v-5v-11.833V69c0-30.327,24.673-55,55-55h259
	c30.327,0,55,24.673,55,55v400.167V481v5h5V69C391,35.863,364.137,9,331,9z"/>
<g>
	<rect x="37.512" y="97.756" fill="#292B31" width="327.888" height="437.744"/>
	<path fill="#676D79" d="M365.4,207.393v-0.512H256.275V97.756h-0.512v109.125H147.149V97.244h-0.512v109.637H37.512v0.512h109.125
		v108.101H37v0.512h109.637v109.125H37.512v0.512h109.125v254.114h0.512V425.643h108.615v254.114h0.512V425.643H365.4v-0.512
		H256.275V316.006H365.4v-0.512H256.275V207.393H365.4z M255.764,425.131H147.149V316.006h108.615V425.131z M255.764,315.494
		H147.149V207.393h108.615V315.494z"/>
	<rect x="146.637" y="206.881" fill="#76ACFC" width="109.636" height="108.613"/>
	<rect x="37.512" y="425.643" fill="#FAD260" width="109.637" height="109.857"/>
	<rect x="256.275" y="315.494" fill="#83CBC5" width="109.125" height="110.148"/>
	<rect x="37.512" y="206.881" fill="#F47264" width="109.125" height="108.613"/>
	<g>
		<path fill="#FFFFFF" d="M87.863,148.241h-7.75l-9.3,9.3h12.4l2.664,2.658l-5.378,5.377l0.878,0.878l5.378-5.378l2.679,2.823
			l-0.021,0.021v12.221l9.3-9.3v-7.75l13.95-13.847c3.874-3.875,4.65-15.603,4.65-15.603s-11.726,0.775-15.601,4.65L87.863,148.241z
			 M83.009,155.991H74.16l5.953-6.2h9.3L83.009,155.991z M97.164,166.841l-6.2,5.997v-8.728l6.2-6.57V166.841z M115.949,131.008
			c-0.412,3.795-1.632,10.724-4.161,13.255L98.714,157.44v-2.999l-8.411,8.572l-2.67-2.814l5.492-5.492l-0.877-0.878l-5.493,5.493
			l-2.664-2.658l8.424-8.424h-2.997l13.174-13.072C105.223,132.637,112.154,131.417,115.949,131.008z"/>
		<path fill="#FFFFFF" d="M83.358,160.19l-1.297-1.296c-1.554,0.306-3.83,1.059-5.769,2.999c-3.288,3.289-5.48,14.248-5.48,14.248
			s10.868-2.101,14.247-5.479c1.976-1.976,2.725-4.214,3.017-5.752l-1.298-1.3c-0.092,1.114-0.627,3.768-2.814,5.956
			c-1.98,1.98-7.473,3.651-11.1,4.535c0.904-3.651,2.594-9.182,4.524-11.112C79.491,160.886,82.209,160.31,83.358,160.19z"/>
		<path fill="#FFFFFF" d="M105.689,145.141c2.137,0,3.875-1.738,3.875-3.875c0-2.137-1.738-3.875-3.875-3.875
			c-2.137,0-3.875,1.738-3.875,3.875C101.814,143.403,103.552,145.141,105.689,145.141z M105.689,138.941
			c1.282,0,2.325,1.043,2.325,2.325c0,1.282-1.043,2.325-2.325,2.325c-1.282,0-2.325-1.043-2.325-2.325
			C103.364,139.984,104.407,138.941,105.689,138.941z"/>
		<path fill="#FFFFFF" d="M199.885,170.438v-29.852c0-1.735-1.442-3.142-3.142-3.142h-15.711c-1.7,0-3.142,1.407-3.142,3.142v29.852
			c0,1.735,1.442,3.142,3.142,3.142h15.711C198.443,173.58,199.885,172.173,199.885,170.438z M179.461,170.438v-29.852
			c0-0.867,0.724-1.571,1.571-1.571h15.711c0.847,0,1.571,0.704,1.571,1.571v29.852c0,0.865-0.724,1.571-1.571,1.571h-15.711
			C180.185,172.009,179.461,171.303,179.461,170.438z"/>
		<path fill="#FFFFFF" d="M181.031,167.295h15.711v-23.567h-15.711V167.295z M182.603,145.3h12.569v20.425h-12.569V145.3z"/>
		<rect x="187.316" y="168.866" fill="#FFFFFF" width="3.142" height="1.571"/>
		<rect x="185.745" y="140.586" fill="#FFFFFF" width="1.571" height="1.571"/>
		<rect x="188.887" y="140.586" fill="#FFFFFF" width="3.142" height="1.571"/>
		<path fill="#FFFFFF" d="M221.881,132.731h-31.422c-1.7,0-3.142,1.407-3.142,3.142h1.571c0-0.867,0.724-1.571,1.571-1.571h31.422
			c0.848,0,1.571,0.704,1.571,1.571v21.996c0,0.865-0.724,1.571-1.571,1.571h-20.425v1.571h4.713v1.571h-4.713v1.571h17.282v-1.571
			H207.74v-1.571h14.14c1.7,0,3.142-1.407,3.142-3.142v-21.996C225.023,134.138,223.581,132.731,221.881,132.731z"/>
		<path fill="#FFFFFF" d="M213.088,475.632c0-8.421-6.828-15.248-15.248-15.248s-15.248,6.828-15.248,15.248
			s6.828,15.248,15.248,15.248c3.735,0,7.153-1.348,9.803-3.578l11.676,11.604l2.271-2.196l-11.724-11.722
			C211.878,482.403,213.088,479.162,213.088,475.632z M197.839,489.596c-7.713,0-13.964-6.252-13.964-13.964
			c0-7.713,6.253-13.964,13.964-13.964c7.714,0,13.964,6.253,13.964,13.964C211.805,483.343,205.553,489.596,197.839,489.596z"/>
		<polygon fill="#FFFFFF" points="310.837,479.694 301.23,479.694 301.23,481.295 312.438,481.295 312.438,466.886 310.837,466.886 
					"/>
		<path fill="#FFFFFF" d="M310.837,460.482c-10.61,0-19.212,8.602-19.212,19.212c0,10.611,8.602,19.212,19.212,19.212
			s19.212-8.601,19.212-19.212C330.05,469.084,321.447,460.482,310.837,460.482z M310.837,497.627
			c-9.887,0-17.931-8.045-17.931-17.933c0-9.889,8.044-17.931,17.931-17.931c9.888,0,17.931,8.042,17.931,17.931
			C328.768,489.582,320.725,497.627,310.837,497.627z"/>
		<path fill="#FFFFFF" d="M95.159,466.411l-0.012-0.012l-9.404,9.408c-4.3-2.115-8.623-2.154-11.098,0.304l9.818,9.817
			l-12.409,12.409l-2.264,3.129l3.13-2.265l12.407-12.409l9.82,9.82c2.453-2.476,2.415-6.796,0.303-11.097l9.406-9.405l-0.018-0.018
			c2.956,0.988,5.803,0.705,7.573-1.063l-16.185-16.185C94.458,460.614,94.174,463.457,95.159,466.411z M94.945,494.689
			l-18.38-18.383c2.758-1.344,7.301-0.605,11.209,2.146l5.025,5.024C95.554,487.387,96.291,491.931,94.945,494.689z M95.145,484.097
			l-7.987-7.985l7.987-7.985l7.984,7.985L95.145,484.097z M110.465,474.816c-2.152,0.905-5.515,0.442-8.383-1.476l2.731,2.731
			l-6.888-6.889c-0.959-1.416-1.653-2.91-1.949-4.392c-0.289-1.45,0.032-2.95,0.476-3.989L110.465,474.816z"/>
		<path fill="#FFFFFF" d="M112.385,274.541v-19.77c0-1.68-1.299-3.041-2.978-3.041c0,0-5.549,0-6.44,0
			c-0.795,0-1.194-0.459-1.194-0.459l-2.365-4.651l-0.003,0.009c-0.555-0.6-1.344-0.982-2.228-0.982H86.595
			c-0.882,0-1.671,0.381-2.228,0.982l-0.003-0.009L82,251.271c0,0-0.399,0.459-1.194,0.459c-0.891,0-6.439,0-6.439,0
			c-1.682,0-3.042,1.362-3.042,3.041v19.77c0,1.68,1.36,3.041,3.042,3.041h35.04C111.086,277.582,112.385,276.219,112.385,274.541z
			 M72.846,274.541v-19.77c0-0.838,0.681-1.521,1.521-1.521c0,0,5.75,0,6.843,0c1.093,0,1.726-0.76,1.726-0.76l2.549-4.828
			c0.297-0.319,0.691-0.494,1.11-0.494h10.583c0.421,0,0.815,0.175,1.11,0.494l2.549,4.828c0,0,0.633,0.76,1.726,0.76
			s6.845,0,6.845,0c0.839,0,1.457,0.681,1.457,1.521l-0.001,19.77c0,0.838-0.617,1.521-1.457,1.521h-35.04
			C73.528,276.062,72.846,275.379,72.846,274.541z"/>
		<path fill="#FFFFFF" d="M91.855,256.292c-3.779,0-6.843,3.063-6.843,6.843s3.064,6.844,6.843,6.844s6.843-3.064,6.843-6.844
			C98.699,259.355,95.635,256.292,91.855,256.292z M91.855,268.762c-3.107,0-5.627-2.52-5.627-5.627s2.52-5.627,5.627-5.627
			s5.627,2.52,5.627,5.627S94.962,268.762,91.855,268.762z"/>
		<path fill="#FFFFFF" d="M91.855,253.25c-5.459,0-9.885,4.425-9.885,9.885c0,5.461,4.425,9.885,9.885,9.885
			s9.885-4.424,9.885-9.885C101.74,257.675,97.314,253.25,91.855,253.25z M91.855,271.803c-4.787,0-8.668-3.882-8.668-8.668
			c0-4.785,3.882-8.668,8.668-8.668s8.668,3.883,8.668,8.668C100.523,267.921,96.641,271.803,91.855,271.803z"/>
		<rect x="192.209" y="358.461" fill="#FFFFFF" width="9.171" height="1.528"/>
		<rect x="192.209" y="363.046" fill="#FFFFFF" width="19.869" height="1.528"/>
		<rect x="192.209" y="367.632" fill="#FFFFFF" width="19.869" height="1.528"/>
		<path fill="#FFFFFF" d="M206.727,388.265l3.821,3.821v-10.78c0.947-0.964,1.53-2.283,1.53-3.739c0-2.955-2.395-5.351-5.35-5.351
			s-5.351,2.396-5.351,5.351c0,1.457,0.584,2.775,1.528,3.739v10.78L206.727,388.265z M209.021,389.031l-2.293-2.294l-2.293,2.293
			v-6.637c0.695,0.331,1.473,0.523,2.293,0.523c0.821,0,1.598-0.191,2.293-0.523V389.031z M202.755,377.566
			c0-2.192,1.782-3.975,3.974-3.975c2.192,0,3.975,1.782,3.975,3.975c0,2.191-1.782,3.974-3.975,3.974
			C204.537,381.54,202.755,379.758,202.755,377.566z"/>
		<path fill="#FFFFFF" d="M213.607,382.916h-1.527v1.528h1.527c1.654,0,3.058-1.369,3.058-3.058v-25.982l-9.172-9.171H190.68
			c-1.654,0-3.057,1.367-3.057,3.057v32.097c0,1.688,1.403,3.058,3.057,3.058h10.699v-1.529H190.68
			c-0.824,0-1.528-0.685-1.528-1.528V349.29c0-0.844,0.704-1.528,1.528-1.528h15.285v6.114c0,1.688,1.403,3.057,3.057,3.057h6.115
			v24.455C215.137,382.232,214.432,382.916,213.607,382.916z M209.021,355.404c-0.824,0-1.527-0.686-1.527-1.528v-5.35v-0.133
			l7.01,7.011H209.021z"/>
		<path fill="#FFFFFF" d="M109.074,385.488v-34.644H78.949c-1.663,0-3.012,1.35-3.012,3.013v31.631c0,1.663,1.349,3.012,3.012,3.012
			h27.112v-33.138v-1.506H77.443c0-0.83,0.676-1.507,1.506-1.507h28.619v33.139H109.074L109.074,385.488z M104.555,355.362v31.631
			H78.949c-0.83,0-1.506-0.676-1.506-1.506v-30.125H104.555z"/>
		<rect x="81.962" y="361.388" fill="#FFFFFF" width="18.075" height="1.506"/>
		<rect x="86.48" y="364.4" fill="#FFFFFF" width="9.037" height="1.506"/>
		<path fill="#FFFFFF" d="M325.139,256.93l6.344-3.664l-13.789-7.959l-6.344,3.662l-6.344-3.662l-13.79,7.959l6.345,3.664
			l-6.408,3.698l7.406,4.276v0.671v6.159l12.791,7.384l12.791-7.384v-4.654v-2.176l7.406-4.276l-1.206-0.694L325.139,256.93z
			 M317.693,246.695l11.379,6.57l-5.139,2.967l-11.379-6.569L317.693,246.695z M293.627,253.266l11.379-6.57l5.139,2.967
			l-11.379,6.57L293.627,253.266z M293.562,260.628l5.203-3.003l11.379,6.57l-5.201,3.003L293.562,260.628z M310.598,277.293
			l-10.533-6.081v-5.44l4.889,2.83l5.645-3.271V277.293z M311.35,263.498l-11.381-6.568l11.381-6.572l11.379,6.572L311.35,263.498z
			 M322.635,271.213l-10.533,6.081v-11.961l5.672,3.253l4.861-2.812V271.213z M317.757,267.198l-5.202-3.003l11.379-6.57
			l5.205,3.003L317.757,267.198z"/>
		<circle fill="#FFFFFF" cx="192.631" cy="257.604" r="2.22"/>
		<circle fill="#FFFFFF" cx="201.51" cy="257.604" r="2.22"/>
		<circle fill="#FFFFFF" cx="210.389" cy="257.604" r="2.22"/>
		<path fill="#FFFFFF" d="M220.008,267.225v-19.238c0-1.635-1.326-2.961-2.959-2.961h-31.077c-1.635,0-2.96,1.326-2.96,2.961v19.238
			c0,1.633,1.324,2.959,2.96,2.959h5.919v7.399l7.399-7.399h17.758C218.682,270.184,220.008,268.857,220.008,267.225z
			 M198.679,268.703l-5.307,5.307v-5.307h-7.399c-0.816,0-1.48-0.664-1.48-1.48v-19.238c0-0.815,0.664-1.479,1.48-1.479h31.076
			c0.816,0,1.48,0.664,1.48,1.479v19.238c0,0.816-0.664,1.48-1.48,1.48H198.679z"/>
		<path fill="#FFFFFF" d="M328.473,150.476v-2.335c0-9.455-7.668-17.123-17.123-17.123s-17.123,7.668-17.123,17.123v2.335
			l-3.113,0.778v7.005l3.113,0.778c0,1.718,1.394,3.113,3.113,3.113c1.719,0,3.113-1.395,3.113-3.113v-7.783
			c0-1.718-1.395-3.113-3.113-3.113h-1.867c0-8.755,7.123-15.878,15.877-15.878c8.756,0,15.879,7.123,15.879,15.878h-1.869
			c-1.719,0-3.112,1.395-3.112,3.113v7.783c0,1.718,1.394,3.113,3.112,3.113c0.678,0,1.299-0.222,1.81-0.589
			c-0.496,5.089-4.866,9.192-10.509,10.053c-0.379-0.968-1.561-1.681-2.975-1.681c-1.721,0-3.113,1.046-3.113,2.335
			s1.394,2.336,3.113,2.336c1.438,0,2.635-0.735,2.994-1.727c6.682-0.946,11.795-6.079,11.795-12.284v-1.556l3.112-0.778v-7.005
			L328.473,150.476z M294.227,157.481l-1.557-0.389v-4.67l1.557-0.389V157.481z M295.783,149.698h1.556
			c0.858,0,1.556,0.699,1.556,1.556v7.783c0,0.858-0.697,1.556-1.556,1.556s-1.556-0.699-1.556-1.556V149.698z M326.917,159.038
			c0,0.858-0.696,1.556-1.558,1.556c-0.858,0-1.555-0.699-1.555-1.556v-7.783c0-0.858,0.696-1.556,1.555-1.556h1.558V159.038z
			 M330.029,157.092l-1.555,0.389v-5.449l1.555,0.389V157.092z"/>
		<path fill="#FFFFFF" d="M311.35,391.67l11.392-24.563c0.067-0.144,0.138-0.282,0.198-0.428l0.041-0.112
			c0.59-1.456,0.922-3.042,0.922-4.707c0-6.933-5.621-12.553-12.553-12.553s-12.552,5.62-12.552,12.553
			c0,1.665,0.373,3.363,0.962,4.817c0.061,0.146,0.133,0.285,0.199,0.427L311.35,391.67z M311.35,350.562
			c6.23,0,11.297,5.065,11.297,11.297c0,1.453-0.278,2.878-0.844,4.271l-0.02,0.06c-0.034,0.088-0.078,0.17-0.118,0.253
			l-0.062,0.135l-10.252,22.106l-10.258-22.116l-0.058-0.125c-0.039-0.083-0.083-0.167-0.11-0.235
			c-0.562-1.388-0.871-2.934-0.871-4.349C300.053,355.629,305.119,350.562,311.35,350.562z"/>
		<path fill="#FFFFFF" d="M311.35,368.135c3.467,0,6.276-2.81,6.276-6.275c0-3.467-2.81-6.276-6.276-6.276
			c-3.466,0-6.275,2.81-6.275,6.276C305.074,365.325,307.884,368.135,311.35,368.135z M311.35,356.838
			c2.77,0,5.021,2.253,5.021,5.021c0,2.768-2.253,5.021-5.021,5.021s-5.021-2.253-5.021-5.021S308.581,356.838,311.35,356.838z"/>
	</g>
</g>
<g id="speaker">
	<path fill="#FFFFFF" d="M234.875,58h-65.781c-3.038,0-5.5,2.462-5.5,5.5s2.462,5.5,5.5,5.5h65.781c3.038,0,5.5-2.462,5.5-5.5
		S237.913,58,234.875,58z M146.594,58c-2.951,0-5.344,2.462-5.344,5.5s2.392,5.5,5.344,5.5c2.952,0,5.344-2.462,5.344-5.5
		S149.545,58,146.594,58z"/>
</g>
<g id="button">
</g>
<g>
	<defs>
		<rect id="SVGID_1_" x="37.512" y="97.756" width="327.888" height="437.744"/>
	</defs>
	<clipPath id="SVGID_2_">
		<use xlink:href="#SVGID_1_"  overflow="visible"/>
	</clipPath>
</g>
<rect x="37" y="96.756" fill="#FFFFFF" width="328.4" height="438.744"/>
<g>
	<defs>
		<rect id="SVGID_3_" x="37.512" y="97.756" width="327.888" height="437.744"/>
	</defs>
	<clipPath id="SVGID_4_">
		<use xlink:href="#SVGID_3_"  overflow="visible"/>
	</clipPath>
</g>
<g>
	<path fill="#0089F3" d="M217.098,245.388v-11.3h11.697c1.73,0,3.139-1.407,3.139-3.137v-8.881c0-1.73-1.408-3.141-3.139-3.141
		h-49.274c-1.728,0-3.135,1.411-3.135,3.141v8.881c0,1.73,1.407,3.137,3.135,3.137h13.782v11.3
		c-36.104,5.712-63.711,36.964-63.711,74.675c0,41.754,33.855,75.607,75.608,75.607c41.755,0,75.608-33.854,75.608-75.607
		C280.809,282.352,253.201,251.1,217.098,245.388L217.098,245.388z M205.2,381.036c-33.624,0-60.973-27.35-60.973-60.974
		c0-33.623,27.349-60.986,60.973-60.986s60.97,27.363,60.97,60.986C266.17,353.687,238.824,381.036,205.2,381.036L205.2,381.036z
		 M205.2,381.036"/>
	<path fill="#0089F3" d="M204.157,265.371v54.691h54.694C258.852,289.854,234.368,265.371,204.157,265.371L204.157,265.371z
		 M204.157,265.371"/>
	<path fill="#0089F3" d="M204.157,356.442h9.771v16.199h-9.771V356.442z M153.447,312.376h16.259v12.203h-16.259V312.376z
		 M243.004,341.605l8.896,5.148c0.796-1.428,1.516-2.883,2.189-4.367l-8.651-5.008L243.004,341.605z M226.835,355.938l6.155,10.595
		c1.394-0.854,2.741-1.775,4.043-2.756l-5.987-10.289L226.835,355.938z M182.646,366.563l-4.211-2.45l6.186-10.626l4.209,2.465
		L182.646,366.563z M162.008,347.761l-2.438-4.211l10.674-6.171l2.435,4.227L162.008,347.761z M170.227,299.575l-10.656-6.155
		l2.438-4.224l10.653,6.153L170.227,299.575z M184.606,283.47l-6.171-10.611l4.211-2.467l6.184,10.61L184.606,283.47z
		 M139.623,248.833c-6.354,5.88-6.739,15.802-0.875,22.155l23.028-21.281C155.896,243.338,145.992,242.953,139.623,248.833
		L139.623,248.833z M139.623,248.833"/>
</g>
</svg>
